<?xml version="1.0" encoding="UTF-8"?>
<svg id="Layer_1" data-name="Layer 1" xmlns="http://www.w3.org/2000/svg" viewBox="0 0 1254.86 1254.71">
  <path d="M599.05.54c394.87-16.01,706.09,326.77,649.04,719.04-39.95,274.66-261.3,493.15-536.48,529.52C292.87,1304.45-59.47,941.98,8.42,524.92,55.61,235.05,304.65,12.48,599.05.55h0ZM1019.26,818.25l.04-373.54c-13.25-123.74-90.38-205.97-221.23-183.14-89.9,15.68-146.84,94.63-152.8,183.2-3.83,56.92,2.03,118.42.03,176.03-.67,19.21-1.13,31.4-12.23,47.77-20.35,29.99-66.07,42.94-96.75,21.13-19.49-13.86-12.87-40.85,12.94-32.94,5.18,1.59,9.12,5.36,14.03,6.97,22.74,7.49,47.89-7.97,46.96-32.98-5.23-122.67,32.35-284.79-103.63-350.35-71.51-34.48-168.3-32.83-229.37,21.34-58.93,52.27-81.22,116.44-77.03,194.97l.04,321.54h253c-2.11-84.22-5.76-171.59-39.83-249.67-17.69-40.55-43.92-76.83-73.94-109.06-9.41-21.51,13.43-34.7,29.17-18.17,12.22,12.84,30.52,42.53,40.62,58.38,50.77,79.73,67.91,141.53,74.97,236.03l4.01,82.49h325v-364.5c0-1.25,2.89-7.72,3.81-9.19,5.74-9.24,19.75-10.71,27.41-3.31,1.26,1.22,4.78,7.23,4.78,8.5v186.5l74.04-86.46c16.18-6.61,31.14,8.41,24.82,24.82l-95.37,118.66-.54,2.43,96.55,122.55h70.5,0ZM241.94,853.55c-7.21-7.76-28-8.81-35.68-.79-10.92,11.4-3.35,24.4,9.47,29.51,5.72,2.28,21.96,2.75,22.54,8.52-2.17,12.11-17.37,10.08-24.97,3.9-2.51-2.04-4.09-7.44-8.77-5.71-8.7,3.23,1.29,13.37,5.38,16.1,9.18,6.11,26.91,6.14,36.88,2.21,11.23-4.43,14.26-19.86,4.95-28.04-9.99-8.77-31.6,1.34-40.07-12.97-.14-9.48,10.64-10.09,17.8-7.76,4.5,1.47,9.27,7.55,13.23,2.65,1.77-2.18,1.04-5.69-.77-7.63h0ZM504.08,848.48c-38.75,1.46-36.71,66.52,4.67,62.75,35.52-3.24,33.6-64.19-4.67-62.75ZM987.07,848.48c-38.57,2.5-34.85,68.09,6.6,62.69,35.59-4.64,31.15-65.13-6.6-62.69ZM798.26,884.25c-7.19-5.27-19.47-31.49-26.26-34.24-4.91-1.99-13.65.97-18.43,3.05-7.96,3.46-10.59,6.87-11.35,15.65-.66,7.69-.87,34.01,5.75,38.58,3.93,2.71,26.28,3.65,26.28-1.54v-31.5l23.48,33.02c3.17,2.95,12.22,3.25,13.99-1.04l.33-53.28c-1.91-5.69-13.81-4.14-13.81.81v30.5h.02Z"/>
  <path d="M504.05,859.46c9.73-.78,17.97,8.24,19.12,17.38,2.53,20.11-20.94,33.32-32.75,14.75-7.45-11.71-1.02-30.96,13.63-32.13Z"/>
  <path d="M1001.7,865.8c16.78,18.51-7.36,46.19-24.35,29.86-18.02-17.32,5.9-50.21,24.35-29.86Z"/>
</svg>